<svg width="8" height="6" viewBox="0 0 8 6" fill="none" xmlns="http://www.w3.org/2000/svg">
<path d="M3.43025 5.23409L0.606918 1.3286C0.548707 1.24507 0.517907 1.15037 0.517581 1.05392C0.517255 0.957461 0.547415 0.862617 0.60506 0.778818C0.662705 0.69502 0.745826 0.625189 0.846154 0.576272C0.946481 0.527357 1.06052 0.50106 1.17692 0.5H6.82358C6.93998 0.50106 7.05402 0.527357 7.15435 0.576272C7.25468 0.625189 7.3378 0.69502 7.39544 0.778818C7.45309 0.862617 7.48325 0.957461 7.48292 1.05392C7.4826 1.15037 7.45179 1.24507 7.39358 1.3286L4.57025 5.23409C4.51083 5.31526 4.42716 5.38238 4.32732 5.42895C4.22747 5.47553 4.11483 5.5 4.00025 5.5C3.88567 5.5 3.77303 5.47553 3.67319 5.42895C3.57334 5.38238 3.48967 5.31526 3.43025 5.23409Z" fill="#4D4D4D"/>
</svg>
